<svg width="125" height="125" viewBox="0 0 125 125" fill="none" xmlns="http://www.w3.org/2000/svg">
<g clip-path="url(#clip0_512_164)">
<path d="M100.352 0H24.6479C11.0352 0 0 11.0352 0 24.6479V100.352C0 113.965 11.0352 125 24.6479 125H100.352C113.965 125 125 113.965 125 100.352V24.6479C125 11.0352 113.965 0 100.352 0Z" fill="black" stroke="black" stroke-width="21.9178"/>
<path d="M104.413 39.4865C100.168 32.2137 94.4107 26.4558 87.1386 22.2115C79.8654 17.967 71.9251 15.8453 63.3123 15.8453C54.7006 15.8453 46.7578 17.9677 39.4861 22.2115C32.2133 26.4556 26.4558 32.2137 22.2111 39.4865C17.9671 46.7591 15.8449 54.7008 15.8449 63.3115C15.8449 73.6548 18.8626 82.9558 24.8996 91.2168C30.9358 99.4785 38.7338 105.195 48.2929 108.368C49.4056 108.574 50.2293 108.429 50.7648 107.936C51.3006 107.442 51.5682 106.823 51.5682 106.082C51.5682 105.959 51.5576 104.846 51.537 102.745C51.522 101.258 51.5126 99.9054 51.5084 98.6874C51.5058 97.9338 50.8267 97.3623 50.0842 97.4908V97.4908C49.1778 97.6568 48.0344 97.7272 46.6539 97.7073C45.2741 97.688 43.8416 97.5434 42.3585 97.2745C40.8748 97.008 39.4947 96.39 38.2173 95.4217C36.9405 94.4534 36.0341 93.1859 35.4983 91.6212L34.8803 90.1989C34.4683 89.252 33.8198 88.2002 32.9337 87.0472C32.2013 86.0933 31.4621 85.3933 30.7158 84.9466C30.4121 84.7648 30.1003 84.5951 29.8125 84.3891V84.3891C29.5242 84.1832 29.2566 83.9349 29.0092 83.6468C28.762 83.3586 28.5769 83.0703 28.4533 82.7815C28.3294 82.4925 28.4321 82.2555 28.7622 82.0695C28.9876 81.9425 29.3373 81.8602 29.8122 81.8207C30.3052 81.7797 30.8003 81.83 31.2895 81.9031L31.7903 81.9779C32.6144 82.1431 33.6338 82.6365 34.8498 83.461C36.0651 84.285 37.0641 85.3561 37.8471 86.674C38.7953 88.3638 39.9377 89.6515 41.2774 90.5375C42.6161 91.4235 43.9659 91.8658 45.3254 91.8658C46.6849 91.8658 47.859 91.7628 48.8483 91.5578C49.3594 91.4512 49.8541 91.3169 50.3325 91.1551C51.1597 90.8752 51.7092 89.9402 51.9181 89.0922V89.0922C52.4531 86.9205 51.1121 83.8344 48.9386 83.3067C48.7305 83.2562 48.5251 83.2042 48.3225 83.1508C46.4482 82.656 44.5114 81.8528 42.5133 80.7393C40.5141 79.6272 38.8557 78.2463 37.5376 76.5989C36.2192 74.9506 35.1373 72.7867 34.2932 70.1091C33.4487 67.4304 33.0264 64.3404 33.0264 60.8382C33.0264 58.1491 33.4998 55.6761 34.4465 53.4189C35.9506 49.8329 36.6861 45.7492 36.8857 41.8656C36.9149 41.297 36.9744 40.7201 37.0642 40.135C37.526 37.1249 40.1834 35.0659 43.0474 36.1012C43.2462 36.1731 43.4494 36.25 43.6572 36.332C46.006 37.2592 47.7257 38.0534 48.818 38.7119V38.7119C50.5077 39.7302 52.537 40.0443 54.4703 39.6516C57.3503 39.0666 60.2973 38.7741 63.3119 38.7741C66.4412 38.7741 69.4982 39.0893 72.4827 39.7196C74.213 40.0851 76.0331 39.8419 77.5285 38.8979V38.8979C79.1345 37.9086 81.0311 37.002 83.2136 36.1778C83.3493 36.1267 83.4831 36.0778 83.6148 36.0312C86.4284 35.0364 89.0261 37.0773 89.5152 40.0212C89.6188 40.6449 89.6878 41.2593 89.722 41.8644C89.9418 45.7471 90.6739 49.8338 92.1781 53.42C93.1249 55.6774 93.5985 58.1504 93.5985 60.8388C93.5985 64.341 93.1747 67.4408 92.3315 70.14C91.4872 72.8397 90.3959 75.0015 89.0572 76.6298C87.717 78.258 86.048 79.6281 84.0499 80.7399C82.0514 81.8526 80.1139 82.6557 78.2396 83.1506V83.1506C75.8775 83.774 74.4102 87.4442 74.85 89.8473C75.0285 90.8224 75.1178 91.8868 75.1178 93.0404V106.08C75.1178 106.821 75.3754 107.44 75.891 107.934C76.406 108.427 77.2193 108.573 78.332 108.366C87.8924 105.194 95.6903 99.4768 101.726 91.2151C107.762 82.954 110.781 73.6531 110.781 63.3097C110.778 54.7002 108.655 46.7591 104.413 39.4865Z" fill="white"/>
</g>
<defs>
<clipPath id="clip0_512_164">
<rect width="125" height="125" rx="10" fill="white"/>
</clipPath>
</defs>
</svg>
