<svg width="125" height="125" viewBox="0 0 125 125" fill="none" xmlns="http://www.w3.org/2000/svg">
<g clip-path="url(#clip0_512_157)">
<path d="M125 0H0V125H125V0Z" fill="#0084B1"/>
<path d="M29.4184 18.9846C35.1435 18.9893 39.8654 23.718 39.853 29.4716C39.8393 35.4963 34.8396 40.0371 29.3479 39.9062C23.7777 40.019 18.8826 35.3665 18.8837 29.4318C18.8837 23.676 23.6239 18.9802 29.4184 18.9846Z" fill="white"/>
<path d="M35.5009 106.003H23.2347C21.6427 106.003 20.3522 104.713 20.3522 103.121V50.792C20.3522 49.2001 21.6427 47.9095 23.2347 47.9095H35.5009C37.0929 47.9095 38.3834 49.2001 38.3834 50.792V103.121C38.3831 104.713 37.0929 106.003 35.5009 106.003Z" fill="white"/>
<path d="M106.116 66.2897C106.116 55.3194 97.2232 46.426 86.2526 46.426H83.1066C77.1047 46.426 71.8022 49.4207 68.6128 53.9979C68.2651 54.4969 67.943 55.015 67.6474 55.5498C67.5451 55.5345 67.4844 55.5265 67.4831 55.5293V49.1061C67.4831 48.4453 66.9474 47.9094 66.2864 47.9094H50.9827C50.3219 47.9094 49.7859 48.445 49.7859 49.1061V104.807C49.7859 105.468 50.3214 106.003 50.9821 106.004L66.6193 106.008C67.2804 106.008 67.8163 105.472 67.8163 104.811V72.6309C67.8163 67.0684 72.2529 62.4497 77.8151 62.3869C80.6545 62.3548 83.2287 63.4926 85.0839 65.3489C86.9148 67.1787 88.0467 69.7087 88.0467 72.502V104.815C88.0467 105.476 88.5824 106.011 89.2429 106.012L104.919 106.015C105.58 106.016 106.116 105.48 106.116 104.819V66.2897H106.116Z" fill="white"/>
</g>
<defs>
<clipPath id="clip0_512_157">
<rect width="125" height="125" rx="10" fill="white"/>
</clipPath>
</defs>
</svg>
